<svg data-v-423bf9ae="" xmlns="http://www.w3.org/2000/svg" viewBox="0 0 437 90" class="iconLeft"><!----><defs data-v-423bf9ae=""><linearGradient data-v-423bf9ae="" gradientTransform="rotate(25)" id="43b392e0-5a41-47e8-b167-bc691dcb20dc" x1="0%" y1="0%" x2="100%" y2="0%"><stop data-v-423bf9ae="" offset="0%" style="stop-color: rgb(0, 10, 104); stop-opacity: 1;"></stop><stop data-v-423bf9ae="" offset="100%" style="stop-color: rgb(0, 196, 238); stop-opacity: 1;"></stop></linearGradient></defs><!----><g data-v-423bf9ae="" id="17ca7a4e-355e-4d00-ace2-b3522a80fe99" fill="#ffffff" transform="matrix(6.550218449725329,0,0,6.550218449725329,131.21172408059525,-20.76419393904561)"><path d="M2.33 14.40L0.09 14.40L0.23 13.87L1.65 13.51L2.52 7.10L1.04 6.98L1.18 6.49L1.18 6.49Q2.91 5.85 5.13 5.85L5.13 5.85L5.13 5.85Q5.54 5.85 5.62 5.86L5.62 5.86L5.62 5.86Q7.47 5.95 8.37 6.69L8.37 6.69L8.37 6.69Q8.79 7.03 9.05 7.50L9.05 7.50L9.05 7.50Q9.50 8.30 9.49 9.26L9.49 9.26L9.49 9.26Q9.49 9.53 9.45 9.74L9.45 9.74L9.45 9.74Q9.27 11.53 7.90 12.80L7.90 12.80L7.90 12.80Q6.62 13.97 4.68 14.27L4.68 14.27L4.68 14.27Q3.87 14.40 2.33 14.40L2.33 14.40ZM3.87 6.39L3.00 13.67L3.00 13.67Q6.93 13.67 7.85 11.32L7.85 11.32L7.85 11.32Q8.10 10.66 8.10 9.80L8.10 9.80L8.10 9.80Q8.10 8.96 7.74 8.22L7.74 8.22L7.74 8.22Q7.49 7.68 7.05 7.31L7.05 7.31L7.05 7.31Q6.63 6.95 5.84 6.66L5.84 6.66L5.84 6.66Q5.07 6.38 4.60 6.36L4.60 6.36L4.60 6.36Q4.12 6.35 3.87 6.39L3.87 6.39ZM11.23 9.39L11.23 9.39L11.23 9.39Q10.68 10.01 10.68 11.25L10.68 11.25L10.68 11.25Q10.68 12.63 11.31 13.40L11.31 13.40L11.31 13.40Q11.63 13.79 11.99 13.78L11.99 13.78L11.99 13.78Q12.37 13.77 12.67 13.45L12.67 13.45L12.67 13.45Q13.24 12.78 13.24 11.50L13.24 11.50L13.24 11.50Q13.24 10.14 12.63 9.41L12.63 9.41L12.63 9.41Q12.33 9.05 11.94 9.04L11.94 9.04L11.94 9.04Q11.56 9.03 11.23 9.39ZM10.20 13.86L10.20 13.86L10.20 13.86Q9.71 13.15 9.71 12.07L9.71 12.07L9.71 12.07Q9.71 11.02 10.08 10.16L10.08 10.16L10.08 10.16Q10.44 9.29 11.05 8.79L11.05 8.79L11.05 8.79Q11.68 8.28 12.43 8.28L12.43 8.28L12.43 8.28Q13.17 8.28 13.70 8.97L13.70 8.97L13.70 8.97Q14.22 9.65 14.22 10.66L14.22 10.66L14.22 10.66Q14.22 11.67 13.90 12.52L13.90 12.52L13.90 12.52Q13.59 13.38 12.97 13.98L12.97 13.98L12.97 13.98Q12.35 14.57 11.53 14.57L11.53 14.57L11.53 14.57Q10.69 14.57 10.20 13.86ZM15.98 9.39L15.98 9.39L15.98 9.39Q15.42 10.01 15.42 11.25L15.42 11.25L15.42 11.25Q15.42 12.63 16.05 13.40L16.05 13.40L16.05 13.40Q16.37 13.79 16.73 13.78L16.73 13.78L16.73 13.78Q17.12 13.77 17.41 13.45L17.41 13.45L17.41 13.45Q17.99 12.78 17.99 11.50L17.99 11.50L17.99 11.50Q17.99 10.14 17.38 9.41L17.38 9.41L17.38 9.41Q17.07 9.05 16.68 9.04L16.68 9.04L16.68 9.04Q16.30 9.03 15.98 9.39ZM14.94 13.86L14.94 13.86L14.94 13.86Q14.46 13.15 14.46 12.07L14.46 12.07L14.46 12.07Q14.46 11.02 14.82 10.16L14.82 10.16L14.82 10.16Q15.18 9.29 15.80 8.79L15.80 8.79L15.80 8.79Q16.43 8.28 17.17 8.28L17.17 8.28L17.17 8.28Q17.92 8.28 18.44 8.97L18.44 8.97L18.44 8.97Q18.96 9.65 18.96 10.66L18.96 10.66L18.96 10.66Q18.96 11.67 18.65 12.52L18.65 12.52L18.65 12.52Q18.33 13.38 17.71 13.98L17.71 13.98L17.71 13.98Q17.10 14.57 16.27 14.57L16.27 14.57L16.27 14.57Q15.44 14.57 14.94 13.86ZM24.51 10.17L24.51 10.17L24.58 10.21L24.58 10.21Q25.33 8.31 26.46 8.31L26.46 8.31L26.46 8.31Q26.93 8.31 27.21 8.61L27.21 8.61L27.21 8.61Q27.48 8.89 27.48 9.43L27.48 9.43L27.48 9.43Q27.48 9.99 27.43 10.26L27.43 10.26L27.14 12.67L27.14 12.67Q27.11 12.84 27.10 13.17L27.10 13.17L27.10 13.17Q27.10 13.60 27.34 13.58L27.34 13.58L27.34 13.58Q27.58 13.57 27.90 13.34L27.90 13.34L27.90 13.34Q28.23 13.10 28.43 12.74L28.43 12.74L28.72 12.93L28.72 12.93Q28.10 14.57 26.64 14.57L26.64 14.57L26.64 14.57Q25.97 14.57 25.97 13.72L25.97 13.72L25.97 13.72Q25.97 13.40 26.11 12.39L26.11 12.39L26.27 11.14L26.27 11.14Q26.36 10.47 26.37 10.08L26.37 10.08L26.37 10.08Q26.37 9.51 26.00 9.50L26.00 9.50L26.00 9.50Q25.47 9.50 25.07 10.09L25.07 10.09L25.07 10.09Q24.67 10.67 24.36 12.05L24.36 12.05L24.36 12.05Q24.32 13.47 24.08 14.03L24.08 14.03L24.08 14.03Q23.82 14.62 23.24 14.62L23.24 14.62L23.24 14.62Q23.21 14.62 22.95 14.60L22.95 14.60L22.84 14.41L23.38 11.81L23.38 11.81Q23.54 10.71 23.54 10.23L23.54 10.23L23.54 10.23Q23.54 9.76 23.45 9.65L23.45 9.65L23.45 9.65Q23.35 9.53 23.14 9.53L23.14 9.53L23.14 9.53Q22.65 9.53 22.24 10.10L22.24 10.10L22.24 10.10Q21.84 10.68 21.53 12.04L21.53 12.04L21.53 12.04Q21.49 13.47 21.23 14L21.23 14L21.23 14Q20.97 14.55 20.38 14.55L20.38 14.55L20.38 14.55Q20.33 14.55 20.08 14.53L20.08 14.53L19.98 14.34L20.54 11.81L20.69 10.22L20.69 10.22Q20.71 9.93 20.71 9.71L20.71 9.71L20.71 9.71Q20.71 9.45 20.65 9.32L20.65 9.32L20.65 9.32Q20.59 9.19 20.46 9.20L20.46 9.20L20.46 9.20Q20.34 9.20 20.04 9.54L20.04 9.54L20.04 9.54Q19.74 9.88 19.52 10.26L19.52 10.26L19.20 10.01L19.20 10.01Q19.47 9.28 20.06 8.71L20.06 8.71L20.06 8.71Q20.63 8.16 21.25 8.16L21.25 8.16L21.25 8.16Q21.79 8.16 21.77 8.85L21.77 8.85L21.77 8.85Q21.77 9.18 21.68 9.58L21.68 9.58L21.68 9.58Q21.61 9.88 21.56 10.19L21.56 10.19L21.56 10.19Q21.55 10.27 21.53 10.37L21.53 10.37L21.53 10.37Q21.51 10.46 21.50 10.50L21.50 10.50L21.50 10.50Q21.49 10.54 21.49 10.55L21.49 10.55L21.57 10.57L21.57 10.57Q21.88 9.64 22.48 8.98L22.48 8.98L22.48 8.98Q23.08 8.33 23.63 8.33L23.63 8.33L23.63 8.33Q24.17 8.33 24.40 8.53L24.40 8.53L24.40 8.53Q24.62 8.74 24.62 9.30L24.62 9.30L24.62 9.30Q24.62 9.86 24.51 10.17ZM29.99 12.43L29.99 12.43L29.99 12.43Q29.99 13.04 30.08 13.26L30.08 13.26L30.08 13.26Q30.17 13.49 30.43 13.49L30.43 13.49L30.43 13.49Q30.93 13.49 31.58 12.45L31.58 12.45L31.58 12.45Q32.22 11.41 32.48 9.88L32.48 9.88L32.48 9.88Q32.38 9.60 32.08 9.37L32.08 9.37L32.08 9.37Q31.78 9.13 31.45 9.13L31.45 9.13L31.45 9.13Q31.13 9.13 30.82 9.46L30.82 9.46L30.82 9.46Q30.52 9.78 30.34 10.33L30.34 10.33L30.34 10.33Q29.99 11.39 29.99 12.43ZM32.82 8.18L32.89 8.12L33.71 8.37L33.22 11.04L33.01 12.67L33.01 12.67Q32.96 13.04 32.96 13.25L32.96 13.25L32.96 13.25Q32.96 13.60 33.26 13.60L33.26 13.60L33.26 13.60Q33.45 13.60 33.76 13.26L33.76 13.26L33.76 13.26Q34.08 12.91 34.31 12.52L34.31 12.52L34.59 12.76L34.59 12.76Q34.21 13.71 33.76 14.16L33.76 14.16L33.76 14.16Q33.31 14.61 32.59 14.61L32.59 14.61L32.59 14.61Q32.26 14.61 32.07 14.36L32.07 14.36L32.07 14.36Q31.89 14.12 31.89 13.62L31.89 13.62L31.89 13.62Q31.89 13.13 32.14 12.43L32.14 12.43L32.05 12.43L32.05 12.43Q31.69 13.29 31.10 13.92L31.10 13.92L31.10 13.92Q30.52 14.54 29.96 14.54L29.96 14.54L29.96 14.54Q29.39 14.54 29.16 14.12L29.16 14.12L29.16 14.12Q28.94 13.70 28.94 12.86L28.94 12.86L28.94 12.86Q28.94 12.01 29.33 10.94L29.33 10.94L29.33 10.94Q29.72 9.86 30.37 9.07L30.37 9.07L30.37 9.07Q31.02 8.28 31.68 8.28L31.68 8.28L31.68 8.28Q32.32 8.28 32.66 8.79L32.66 8.79L32.72 8.79L32.82 8.18ZM36.35 13.36L36.35 13.36L36.35 13.36Q36.66 13.36 36.92 13.06L36.92 13.06L36.92 13.06Q37.17 12.76 37.76 11.71L37.76 11.71L38.10 11.97L38.10 11.97Q37.78 13.19 37.18 13.86L37.18 13.86L37.18 13.86Q36.57 14.55 35.81 14.55L35.81 14.55L35.81 14.55Q35.38 14.55 35.20 14.34L35.20 14.34L35.20 14.34Q35.02 14.14 35.02 13.69L35.02 13.69L35.02 13.69Q35.02 13.23 35.17 11.98L35.17 11.98L35.57 9.16L34.81 9.21L34.98 8.49L35.64 8.55L35.78 7.14L36.82 7.01L36.89 7.10L36.67 8.55L38.25 8.44L38.08 9.24L36.59 9.16L36.29 11.72L36.29 11.72Q36.17 12.87 36.17 13.05L36.17 13.05L36.17 13.05Q36.17 13.22 36.21 13.30L36.21 13.30L36.21 13.30Q36.25 13.36 36.35 13.36ZM40.99 10.51L40.80 12.66L40.80 12.66Q40.76 12.91 40.76 13.16L40.76 13.16L40.76 13.16Q40.76 13.56 41.00 13.56L41.00 13.56L41.00 13.56Q41.23 13.56 41.56 13.32L41.56 13.32L41.56 13.32Q41.89 13.08 42.09 12.71L42.09 12.71L42.38 12.91L42.38 12.91Q41.76 14.55 40.41 14.55L40.41 14.55L40.41 14.55Q39.98 14.55 39.81 14.29L39.81 14.29L39.81 14.29Q39.63 14.04 39.63 13.66L39.63 13.66L39.63 13.66Q39.63 13.24 39.72 12.37L39.72 12.37L39.97 10.22L39.97 10.22Q40.09 9.19 39.74 9.28L39.74 9.28L39.74 9.28Q39.44 9.35 38.80 10.30L38.80 10.30L38.47 10.08L38.47 10.08Q38.59 9.78 38.78 9.46L38.78 9.46L38.78 9.46Q38.97 9.15 39.23 8.86L39.23 8.86L39.23 8.86Q39.48 8.57 39.82 8.38L39.82 8.38L39.82 8.38Q40.15 8.20 40.48 8.20L40.48 8.20L40.48 8.20Q40.63 8.20 40.73 8.24L40.73 8.24L40.73 8.24Q40.84 8.28 40.91 8.36L40.91 8.36L40.91 8.36Q40.97 8.44 41.02 8.53L41.02 8.53L41.02 8.53Q41.07 8.62 41.09 8.77L41.09 8.77L41.09 8.77Q41.10 8.92 41.11 9.05L41.11 9.05L41.11 9.05Q41.11 9.17 41.10 9.38L41.10 9.38L41.10 9.38Q41.08 9.58 41.07 9.73L41.07 9.73L41.07 9.73Q41.06 9.87 41.03 10.11L41.03 10.11L41.03 10.11Q41.00 10.36 40.99 10.51L40.99 10.51ZM41.23 5.66L41.23 5.66L41.23 5.66Q41.41 5.86 41.41 6.17L41.41 6.17L41.41 6.17Q41.41 6.49 41.18 6.75L41.18 6.75L41.18 6.75Q40.95 7.01 40.66 7.01L40.66 7.01L40.66 7.01Q40.37 7.01 40.21 6.82L40.21 6.82L40.21 6.82Q40.04 6.63 40.04 6.33L40.04 6.33L40.04 6.33Q40.04 6.02 40.27 5.74L40.27 5.74L40.27 5.74Q40.50 5.46 40.78 5.46L40.78 5.46L40.78 5.46Q41.06 5.46 41.23 5.66ZM45.66 10.35L45.66 10.35L45.66 10.35Q45.66 10.23 45.60 9.86L45.60 9.86L45.60 9.86Q45.47 9.16 45.19 9.00L45.19 9.00L45.19 9.00Q45.08 8.95 44.97 8.96L44.97 8.96L44.97 8.96Q44.35 8.96 44.02 9.71L44.02 9.71L44.02 9.71Q43.70 10.45 43.70 11.72L43.70 11.72L43.70 11.72Q43.70 12.37 43.80 12.78L43.80 12.78L43.80 12.78Q43.90 13.17 44.19 13.45L44.19 13.45L44.19 13.45Q44.48 13.73 44.96 13.73L44.96 13.73L44.97 13.73L44.97 13.73Q45.29 13.73 45.62 13.49L45.62 13.49L45.62 13.49Q45.95 13.25 46.17 12.84L46.17 12.84L46.42 13.06L46.42 13.06Q46.28 13.67 45.66 14.14L45.66 14.14L45.66 14.14Q45.04 14.61 44.36 14.61L44.36 14.61L44.36 14.61Q43.50 14.61 43.05 13.93L43.05 13.93L43.05 13.93Q42.60 13.26 42.60 12.13L42.60 12.13L42.60 12.13Q42.60 11.37 42.85 10.65L42.85 10.65L42.85 10.65Q43.09 9.96 43.49 9.43L43.49 9.43L43.49 9.43Q43.88 8.92 44.39 8.61L44.39 8.61L44.39 8.61Q44.90 8.29 45.43 8.29L45.43 8.29L45.43 8.29Q45.97 8.29 46.29 8.61L46.29 8.61L46.29 8.61Q46.61 8.92 46.61 9.39L46.61 9.39L46.61 9.39Q46.61 9.86 46.39 10.08L46.39 10.08L46.39 10.08Q46.17 10.29 45.66 10.35Z"></path></g><!----><g data-v-423bf9ae="" id="a7c0d6d0-1a21-4ad9-b1cd-14b7976acf71" transform="matrix(1.2422360771705128,0,0,1.2422360771705128,-6.11180385852564,-16.336801870618082)" stroke="none" fill="#ffffff"><path d="M86.651 13.775L57.21 43.22 42.199 28.207l-8.348 8.348L57.21 59.911 95 22.124l-8.349-8.349zM28.108 72.396H18.46v-8.538h9.648v8.538zm0-16.528H18.46V47.33h9.648v8.538zm0-16.527H18.46v-8.538h9.648v8.538zm38.974 39.716H12.168V24.143h54.914v.007l7.17-7.169v-.008H5v69.252h69.252V52.794l-7.17 7.169v19.094z"></path></g><!----></svg>